<svg xmlns="http://www.w3.org/2000/svg" width="64" height="64" shape-rendering="geometricPrecision" text-rendering="geometricPrecision" image-rendering="optimizeQuality" fill-rule="evenodd" clip-rule="evenodd" viewBox="0 0 640 640"><path d="M548.369 28.406l74.906 74.906c10.064 10.063 10.064 26.528 0 36.591l-57.485 57.485L454.293 85.891l57.485-57.485c10.063-10.063 26.528-10.063 36.591 0zM160.963 84.863l121.372 172.975 150.179-150.167L544 219.168 374.285 388.883l79.324 113.045-54.65 39.509-83.565-93.663-122.423 122.411c-10.05 10.063-26.516 10.063-36.579 0L81.486 495.28c-10.063-10.063-10.063-26.528 0-36.591L210.25 329.923 31.489 129.547C-49.264 37.868 36.59-92.385 160.963 84.865zM46.631 490.813L158.589 602.76 31.371 623.748l15.26-132.935zm393.3 50.15c44.138-32.598 75.166-29.303 92.588 8.068 4.134 8.858 16.689 46.748 42.496 67.512 25.359 20.374 64.997 23.197 64.997 24.45-62.044 5.775-316.94 7.83-200.08-100.03z"/></svg>