<?xml version="1.0" encoding="UTF-8" standalone="no"?>
<!-- Created with Inkscape (http://www.inkscape.org/) -->

<svg
   xmlns:dc="http://purl.org/dc/elements/1.1/"
   xmlns:cc="http://creativecommons.org/ns#"
   xmlns:rdf="http://www.w3.org/1999/02/22-rdf-syntax-ns#"
   xmlns:svg="http://www.w3.org/2000/svg"
   xmlns="http://www.w3.org/2000/svg"
   xmlns:sodipodi="http://sodipodi.sourceforge.net/DTD/sodipodi-0.dtd"
   xmlns:inkscape="http://www.inkscape.org/namespaces/inkscape"
   width="300mm"
   height="450mm"
   viewBox="0 0 300 450"
   version="1.1"
   id="svg888"
   inkscape:version="0.92.4 (5da689c313, 2019-01-14)"
   sodipodi:docname="workspace.svg">
  <defs
     id="defs882" />
  <sodipodi:namedview
     id="base"
     pagecolor="#ffffff"
     bordercolor="#666666"
     borderopacity="1.0"
     inkscape:pageopacity="0.0"
     inkscape:pageshadow="2"
     inkscape:zoom="0.22627417"
     inkscape:cx="723.25745"
     inkscape:cy="794.26137"
     inkscape:document-units="mm"
     inkscape:current-layer="layer1"
     showgrid="true"
     inkscape:window-width="1920"
     inkscape:window-height="1017"
     inkscape:window-x="1672"
     inkscape:window-y="-8"
     inkscape:window-maximized="1" />
  <metadata
     id="metadata885">
    <rdf:RDF>
      <cc:Work
         rdf:about="">
        <dc:format>image/svg+xml</dc:format>
        <dc:type
           rdf:resource="http://purl.org/dc/dcmitype/StillImage" />
        <dc:title></dc:title>
      </cc:Work>
    </rdf:RDF>
  </metadata>
  <g
     inkscape:label="Layer 1"
     inkscape:groupmode="layer"
     id="layer1"
     transform="translate(0,153)">
    <rect
       style="fill:#0471ff;fill-opacity:1;stroke:#fffffc;stroke-width:4.16464472;stroke-miterlimit:4;stroke-dasharray:none;stroke-opacity:1"
       id="rect5142"
       width="314.9119"
       height="464.7085"
       x="-7.2990274"
       y="-160.65918"
       ry="0" />
    <g
       style="clip-rule:evenodd;fill:#fffffe;fill-opacity:1;fill-rule:evenodd;stroke:#ffffff;stroke-opacity:1;image-rendering:optimizeQuality;shape-rendering:geometricPrecision;text-rendering:geometricPrecision"
       id="g5173"
       transform="matrix(0.1766199,0.0028089,-0.0028089,0.1766199,29.959672,194.96843)">
      <path
         id="path5162"
         d="m 121.62,487.955 c 21.036,-21.39 45.922,-43.146 64.442,-71.233 h 267.877 c 18.531,28.087 43.418,49.843 64.453,71.233 161.222,164.152 150.344,-220.396 36.438,-335.933 h -8.776 c -14.315,-23.93 -42.272,-40.146 -74.41,-40.146 -32.115,0 -60.072,16.216 -74.399,40.146 H 242.767 c -14.327,-23.93 -42.296,-40.146 -74.422,-40.146 -32.138,0 -60.072,16.216 -74.41,40.146 H 85.17 C -28.724,267.559 -39.602,652.107 121.62,487.955 Z M 155.494,178.75 h 57.875 v 46.075 h 46.087 v 57.887 H 213.37 v 46.099 h -57.875 v -46.1 h -46.11 v -57.886 h 46.11 V 178.75 Z m 277.633,125.317 c 14.008,0 25.37,11.35 25.37,25.359 0,14.031 -11.362,25.394 -25.37,25.394 -14.008,0 -25.37,-11.363 -25.37,-25.394 0,-14.008 11.362,-25.359 25.37,-25.359 z m 13.867,-112.962 c 20.303,0 36.768,16.441 36.768,36.745 0,20.291 -16.465,36.732 -36.768,36.732 -20.292,0 -36.733,-16.44 -36.733,-36.732 0,-20.304 16.441,-36.745 36.733,-36.745 z m 94.89,56.776 c 14.009,0 25.36,11.363 25.36,25.37 0,14.009 -11.351,25.36 -25.36,25.36 -14.02,0 -25.393,-11.351 -25.393,-25.36 0,-14.007 11.374,-25.37 25.394,-25.37 z"
         inkscape:connector-curvature="0"
         style="fill:#fffffe;fill-opacity:1;stroke:#ffffff;stroke-opacity:1" />
    </g>
    <g
       style="clip-rule:evenodd;fill:#ffffff;fill-opacity:1;fill-rule:evenodd;stroke:#ffffcd;stroke-opacity:1;image-rendering:optimizeQuality;shape-rendering:geometricPrecision;text-rendering:geometricPrecision"
       id="g5196"
       transform="matrix(6.2163869e-4,2.7090374e-6,-2.7090374e-6,6.2163869e-4,18.962942,74.954529)">
      <path
         id="path5185"
         d="m 257848,46194 c 221,-4205 855,-8393 1496,-12630 1352,-8940 2742,-18124 -310,-26633 -965,-2694 436,-5660 3130,-6626 2694,-965 5660,436 6626,3130 3960,11041 2378,21497 839,31674 -570,3771 -1135,7500 -1357,11085 h 12 c 2684,0 5119,1097 6880,2858 138,138 266,281 385,430 1537,1730 2474,3995 2474,6452 v 524 h 30726 c 6767,0 12915,2765 17368,7219 4454,4454 7219,10602 7219,17368 v 112180 c 0,6767 -2764,12915 -7218,17369 -4453,4453 -10601,7218 -17369,7218 H 24588 c -6767,0 -12915,-2765 -17369,-7218 C 2765,206140 1,199992 1,193225 V 81045 C 1,74278 2766,68130 7219,63676 11672,59222 17820,56458 24588,56458 h 220441 v -524 c 0,-2659 1094,-5089 2857,-6862 l 10,-10 10,-10 9,-8 c 1772,-1758 4198,-2849 6854,-2849 h 3081 z m -7617,20669 H 24587 c -3894,0 -7439,1597 -10011,4170 -2573,2572 -4170,6117 -4170,10011 v 112180 c 0,3894 1597,7439 4170,10011 2572,2572 6117,4170 10011,4170 h 284161 c 3894,0 7439,-1597 10011,-4170 2573,-2573 4170,-6117 4170,-10011 V 81044 c 0,-3893 -1598,-7438 -4170,-10011 -2572,-2573 -6117,-4170 -10010,-4170 h -35929 c -2873,0 -5203,-2330 -5203,-5203 v -5061 h -12182 v 5061 c 0,2873 -2330,5203 -5203,5203 z M 33248,82852 h 21034 c 2873,0 5203,2330 5203,5203 v 17734 c 0,2873 -2330,5203 -5203,5203 H 33248 c -2873,0 -5203,-2330 -5203,-5203 V 88055 c 0,-2873 2330,-5203 5203,-5203 z M 49079,93258 H 38451 v 7328 H 49079 Z M 74903,82852 h 21034 c 2873,0 5203,2330 5203,5203 v 17734 c 0,2873 -2330,5203 -5203,5203 H 74903 c -2873,0 -5203,-2330 -5203,-5203 V 88055 c 0,-2873 2330,-5203 5203,-5203 z M 90734,93258 H 80105 v 7328 h 10629 z m 25824,-10406 h 21034 c 2873,0 5203,2330 5203,5203 v 17734 c 0,2873 -2330,5203 -5203,5203 h -21034 c -2873,0 -5203,-2330 -5203,-5203 V 88055 c 0,-2873 2330,-5203 5203,-5203 z m 15831,10406 h -10628 v 7328 h 10628 z m 25824,-10406 h 21034 c 2873,0 5203,2330 5203,5203 v 17734 c 0,2873 -2330,5203 -5203,5203 h -21034 c -2873,0 -5203,-2330 -5203,-5203 V 88055 c 0,-2873 2330,-5203 5203,-5203 z m 15831,10406 h -10628 v 7328 h 10628 z m 25824,-10406 h 21034 c 2873,0 5203,2330 5203,5203 v 17734 c 0,2873 -2330,5203 -5203,5203 h -21034 c -2873,0 -5203,-2330 -5203,-5203 V 88055 c 0,-2873 2330,-5203 5203,-5203 z m 15831,10406 h -10628 v 7328 h 10628 z m 25824,-10406 h 21034 c 2873,0 5203,2330 5203,5203 v 17734 c 0,2873 -2330,5203 -5203,5203 h -21034 c -2873,0 -5203,-2330 -5203,-5203 V 88055 c 0,-2873 2330,-5203 5203,-5203 z m 15831,10406 h -10629 v 7328 h 10629 z m 25824,-10406 h 21034 c 2873,0 5203,2330 5203,5203 v 17734 c 0,2873 -2330,5203 -5203,5203 h -21034 c -2873,0 -5203,-2330 -5203,-5203 V 88055 c 0,-2873 2330,-5203 5203,-5203 z m 15831,10406 h -10629 v 7328 h 10629 z m -15831,27887 h 21034 c 2879,0 5213,2358 5213,5266 v 56089 c 0,2908 -2334,5266 -5213,5266 h -21034 c -2879,0 -5213,-2358 -5213,-5266 v -56089 c 0,-2908 2334,-5266 5213,-5266 z m 15821,10531 h -10607 v 45558 h 10607 z M 33247,121620 h 21034 c 2873,0 5203,2330 5203,5203 v 17734 c 0,2873 -2330,5203 -5203,5203 H 33247 c -2873,0 -5203,-2330 -5203,-5203 v -17734 c 0,-2873 2330,-5203 5203,-5203 z m 15831,10406 H 38450 v 7328 h 10628 z m 25824,-10406 h 21034 c 2873,0 5203,2330 5203,5203 v 17734 c 0,2873 -2330,5203 -5203,5203 H 74902 c -2873,0 -5203,-2330 -5203,-5203 v -17734 c 0,-2873 2330,-5203 5203,-5203 z m 15831,10406 H 80104 v 7328 h 10629 z m 25824,-10406 h 21034 c 2873,0 5203,2330 5203,5203 v 17734 c 0,2873 -2330,5203 -5203,5203 h -21034 c -2873,0 -5203,-2330 -5203,-5203 v -17734 c 0,-2873 2330,-5203 5203,-5203 z m 15831,10406 h -10628 v 7328 h 10628 z m 25824,-10406 h 21034 c 2873,0 5203,2330 5203,5203 v 17734 c 0,2873 -2330,5203 -5203,5203 h -21034 c -2873,0 -5203,-2330 -5203,-5203 v -17734 c 0,-2873 2330,-5203 5203,-5203 z m 15831,10406 h -10628 v 7328 h 10628 z m 25824,-10406 h 21034 c 2873,0 5203,2330 5203,5203 v 17734 c 0,2873 -2330,5203 -5203,5203 h -21034 c -2873,0 -5203,-2330 -5203,-5203 v -17734 c 0,-2873 2330,-5203 5203,-5203 z m 15831,10406 h -10628 v 7328 h 10628 z m 25824,-10406 h 21034 c 2873,0 5203,2330 5203,5203 v 17734 c 0,2873 -2330,5203 -5203,5203 h -21034 c -2873,0 -5203,-2330 -5203,-5203 v -17734 c 0,-2873 2330,-5203 5203,-5203 z m 15831,10406 h -10629 v 7328 h 10629 z M 33245,159975 h 21034 c 2873,0 5203,2330 5203,5203 v 17734 c 0,2873 -2330,5203 -5203,5203 H 33245 c -2873,0 -5203,-2330 -5203,-5203 v -17734 c 0,-2873 2330,-5203 5203,-5203 z m 15831,10406 H 38448 v 7328 h 10628 z m 25824,-10406 h 104343 c 2845,0 5151,2330 5151,5203 v 17734 c 0,2873 -2306,5203 -5151,5203 H 74900 c -2844,0 -5151,-2330 -5151,-5203 v -17734 c 0,-2873 2306,-5203 5151,-5203 z m 99192,10406 H 80051 v 7328 h 94041 z m 25774,-10406 h 21034 c 2873,0 5203,2330 5203,5203 v 17734 c 0,2873 -2330,5203 -5203,5203 h -21034 c -2873,0 -5203,-2330 -5203,-5203 v -17734 c 0,-2873 2330,-5203 5203,-5203 z m 15831,10406 h -10628 v 7328 h 10628 z m 25824,-10406 h 21034 c 2873,0 5203,2330 5203,5203 v 17734 c 0,2873 -2330,5203 -5203,5203 h -21034 c -2873,0 -5203,-2330 -5203,-5203 v -17734 c 0,-2873 2330,-5203 5203,-5203 z m 15831,10406 h -10629 v 7328 h 10629 z"
         inkscape:connector-curvature="0"
         style="fill:#ffffff;fill-opacity:1;fill-rule:nonzero;stroke:#ffffcd;stroke-opacity:1" />
    </g>
    <g
       style="clip-rule:evenodd;fill:#ffffff;fill-opacity:1;fill-rule:evenodd;stroke:#ffffff;stroke-opacity:1;image-rendering:optimizeQuality;shape-rendering:geometricPrecision;text-rendering:geometricPrecision"
       id="g5219"
       transform="matrix(1.4462422e-4,-1.4257278e-4,1.4257294e-4,1.446244e-4,219.46097,162.50663)">
      <path
         id="path5208"
         d="m 296420,56243 c 16437,20876 24657,46211 24657,71541 0,29635 -11250,59279 -33749,81778 l -90024,90024 c -22499,22499 -52143,33748 -81777,33748 -29634,0 -59279,-11250 -81778,-33749 C 11250,277086 1,247441 0,217807 0,188172 11249,158529 33748,136030 l 90024,-90024 c 22499,-22499 52143,-33749 81778,-33749 25330,0 50665,8220 71541,24657 L 310002,4004 c 5337,-5337 13991,-5337 19329,0 5337,5337 5337,13992 0,19329 l -32910,32911 z m -73902,52687 c 8555,8555 8555,22553 0,31108 l -16025,16025 c -8555,8555 -22553,8555 -31108,0 -8555,-8555 -8555,-22552 0,-31107 l 16025,-16025 c 8555,-8555 22553,-8555 31108,0 z m 71227,18854 c 0,-22646 -8582,-45285 -25746,-62449 -17164,-17164 -39803,-25746 -62449,-25746 -22646,0 -45285,8582 -62449,25746 l -90024,90024 c -17163,17163 -25745,39802 -25745,62448 0,22646 8583,45285 25746,62449 17163,17163 39803,25746 62449,25746 22646,0 45285,-8582 62448,-25745 l 90024,-90024 c 17164,-17164 25746,-39803 25746,-62449 z"
         inkscape:connector-curvature="0"
         style="fill:#ffffff;fill-opacity:1;fill-rule:nonzero;stroke:#ffffff;stroke-opacity:1" />
    </g>
    <g
       style="clip-rule:evenodd;fill:#ffffff;fill-opacity:1;fill-rule:evenodd;stroke:#ffffff;stroke-opacity:1;image-rendering:optimizeQuality;shape-rendering:geometricPrecision;text-rendering:geometricPrecision"
       id="g5242"
       transform="matrix(7.7179819e-4,0,0,7.7179819e-4,18.422142,-139.30537)">
      <path
         id="path5231"
         d="m 9055,2 h 315224 c 4982,0 9055,4077 9055,9053 v 208830 c 0,4983 -4073,9055 -9055,9055 H 9055 C 4079,226940 0,222868 0,217885 V 9055 C 0,4079 4079,0 9055,0 Z m 25037,31674 h 26646 v 6933 H 34092 Z m 39339,73587 H 34092 v -6960 h 39339 z m 53528,15 H 81429 v -6990 h 45530 z m 78284,-5 h -70598 v -6980 h 70598 z M 101056,76140 h 138733 v 6858 H 101056 Z m -32631,-37 h 25109 v 6933 H 68425 Z m -34333,0 h 26646 v 6933 H 34092 Z M 94329,60804 H 34092 v -6896 h 60237 z m 32631,19 h -25109 v -6933 h 25109 z m 78284,23 h -70598 v -6980 h 70598 z M 101057,31695 h 60237 v 6896 h -60237 z m -32631,-19 h 25109 v 6933 H 68426 Z m 178966,136716 -24685,-13835 v -7924 l 24685,-13834 v 9117 l -17191,8580 17191,8832 v 9063 z m 4576,6173 8912,-48595 h 5176 l -8974,48595 z m 17893,-6107 v -9074 l 17232,-8690 -17232,-8777 v -8986 l 24685,13954 v 7815 l -24685,13757 z m -144285,71002 h 82191 c 220,14228 6065,26950 21943,36984 H 103632 c 12691,-9220 21992,-20406 21943,-36984 h 2 z m 41093,-43043 c 6421,0 11637,5211 11637,11640 0,6422 -5217,11632 -11637,11632 -6423,0 -11640,-5211 -11640,-11632 0,-6429 5217,-11640 11640,-11640 z M 27254,17067 h 278829 c 4409,0 8016,3604 8016,8010 v 156041 c 0,4406 -3612,8009 -8016,8009 H 27254 c -4406,0 -8010,-3604 -8010,-8009 V 25075 c 0,-4409 3604,-8010 8010,-8010 z"
         inkscape:connector-curvature="0"
         style="fill:#ffffff;fill-opacity:1;stroke:#ffffff;stroke-opacity:1" />
    </g>
    <g
       style="clip-rule:evenodd;fill:#ffffff;fill-opacity:1;fill-rule:evenodd;stroke:#ffffe0;stroke-opacity:1;image-rendering:optimizeQuality;shape-rendering:geometricPrecision;text-rendering:geometricPrecision"
       id="g5265"
       transform="matrix(0.12100748,0,0,0.09783169,187.42092,216.32003)">
      <path
         id="path5254"
         d="m 554.192,295.598 h -28.831 v 85.997 h 28.914 v 0.083 c 5.917,-0.012 11.397,-2.528 15.425,-6.555 l 0.744,-0.685 c 3.532,-3.886 5.717,-9.012 5.752,-14.564 h -0.07 v -0.165 h 0.07 v -42.213 h -0.07 v -0.083 h 0.07 c -0.012,-5.964 -2.48,-11.433 -6.472,-15.402 -3.98,-3.968 -9.426,-6.437 -15.367,-6.484 v 0.07 h -0.165 z M 189.333,3.201 c 9.118,-6.024 21.26,-3.295 27.107,6.095 5.846,9.39 3.2,21.921 -5.918,27.945 -16.618,10.984 -16.7,19.524 -11.61,27.213 4.382,6.638 11.15,13.842 17.882,21 9.343,9.945 18.673,19.878 25.122,31.394 15.249,27.237 13.926,54.331 -34.11,81.214 -9.485,5.327 -21.402,1.712 -26.564,-8.08 -5.161,-9.802 -1.653,-22.074 7.831,-27.401 20.067,-11.22 22.583,-19.04 18.898,-25.63 -3.839,-6.85 -11.551,-15.071 -19.288,-23.292 C 180.699,105.167 172.668,96.616 166.49,87.261 148.525,60.095 145.301,32.304 189.333,3.201 Z m 220.881,0 c 9.118,-6.024 21.26,-3.295 27.107,6.095 5.846,9.39 3.2,21.921 -5.918,27.945 -16.63,10.984 -16.689,19.524 -11.622,27.213 4.382,6.638 11.162,13.842 17.882,21 9.343,9.945 18.685,19.878 25.123,31.394 15.248,27.248 13.949,54.331 -34.087,81.214 -9.497,5.327 -21.402,1.712 -26.564,-8.08 -5.161,-9.802 -1.653,-22.074 7.831,-27.401 20.055,-11.22 22.571,-19.028 18.874,-25.63 -3.827,-6.85 -11.551,-15.071 -19.276,-23.292 -7.984,-8.492 -16.015,-17.043 -22.193,-26.398 -17.965,-27.19 -21.2,-54.945 22.843,-84.06 z m -110.423,0 c 9.118,-6.024 21.237,-3.295 27.095,6.095 5.846,9.39 3.2,21.921 -5.918,27.945 -16.618,10.984 -16.7,19.524 -11.61,27.213 4.382,6.638 11.138,13.842 17.87,21 9.343,9.945 18.674,19.878 25.123,31.394 15.248,27.237 13.937,54.343 -34.075,81.214 -9.497,5.327 -21.402,1.712 -26.564,-8.08 -5.173,-9.802 -1.665,-22.074 7.831,-27.401 20.044,-11.22 22.548,-19.04 18.874,-25.63 C 314.59,130.101 306.866,121.88 299.13,113.659 291.157,105.167 283.114,96.616 276.936,87.261 258.972,60.095 255.759,32.304 299.791,3.201 Z M 31.807,585.114 H 219.912 C 156.096,553.2 111.982,487.188 111.982,411.313 V 254.78 h 388.422 v 2.043 c 1.665,-0.46 3.437,-0.673 5.244,-0.673 h 48.721 v 0.083 h 0.083 c 16.748,0.047 31.984,6.897 43.004,17.905 11.103,11.068 18.024,26.398 18.048,43.277 h 0.07 v 0.082 h -0.07 v 41.47 l 0.012,0.743 h 0.059 v 0.166 h -0.071 v 0.082 c -0.06,16.052 -6.355,30.721 -16.56,41.6 -0.401,0.507 -0.873,0.98 -1.346,1.452 -11.043,11.032 -26.386,17.93 -43.311,17.953 v 0.083 h -48.639 c -1.89,0 -3.744,-0.307 -5.48,-0.803 -3.307,72.071 -46.347,134.21 -107.635,164.872 h 198.676 c 4.051,0 7.37,3.956 7.37,8.834 v 37.23 c 0,4.877 -3.319,8.822 -7.37,8.822 H 31.808 c -4.063,0 -7.382,-3.945 -7.382,-8.823 V 593.95 c 0,-4.878 3.319,-8.834 7.382,-8.834 z"
         inkscape:connector-curvature="0"
         style="fill:#ffffff;fill-opacity:1;stroke:#ffffe0;stroke-opacity:1" />
    </g>
  </g>
</svg>
